<svg width="375" height="20" viewBox="0 0 375 20" fill="none" xmlns="http://www.w3.org/2000/svg">
<path fill-rule="evenodd" clip-rule="evenodd" d="M0 0V20H375V0H0Z" fill="black" fill-opacity="0.01"/>
<path d="M8.17383 7.73047V6.69922H4.74609V7.625H7.125V7.83008C7.125 9.25977 6.09961 10.2266 4.58789 10.2266C2.88867 10.2266 1.83398 8.90234 1.83398 6.76953C1.83398 4.66602 2.90625 3.31836 4.58203 3.31836C5.83594 3.31836 6.68555 3.92188 7.04883 5.06445H8.12109C7.81641 3.38867 6.45703 2.3457 4.58203 2.3457C2.26758 2.3457 0.75 4.09766 0.75 6.76953C0.75 9.47656 2.24414 11.1992 4.58203 11.1992C6.74414 11.1992 8.17383 9.81641 8.17383 7.73047ZM9.63867 8.79102C9.75 10.25 10.9863 11.1992 12.7793 11.1992C14.7129 11.1992 15.9375 10.209 15.9375 8.65625C15.9375 7.41406 15.2344 6.73438 13.4824 6.29492L12.5977 6.06055C11.4316 5.76172 10.9688 5.38086 10.9688 4.71875C10.9688 3.86328 11.7129 3.30078 12.8379 3.30078C13.8926 3.30078 14.6074 3.81641 14.7539 4.68359H15.8145C15.7266 3.31836 14.5078 2.3457 12.873 2.3457C11.0859 2.3457 9.88477 3.31836 9.88477 4.75391C9.88477 5.95508 10.5469 6.64648 12.0762 7.0332L13.1602 7.31445C14.3262 7.60742 14.8535 8.06445 14.8535 8.78516C14.8535 9.62305 14.0156 10.2383 12.8789 10.2383C11.6777 10.2383 10.834 9.67578 10.7051 8.79102H9.63867Z" transform="translate(26 2.5)" fill="white"/>
<path d="M4.20312 11.2051C6.35352 11.2051 7.63086 9.52344 7.63086 6.67578C7.63086 5.60352 7.42578 4.70117 7.0332 4.00391C6.46484 2.91992 5.48633 2.33398 4.25 2.33398C2.41016 2.33398 1.10938 3.57031 1.10938 5.30469C1.10938 6.93359 2.28125 8.11719 3.89258 8.11719C4.88281 8.11719 5.68555 7.6543 6.08398 6.85156H6.10156C6.10156 6.85156 6.125 6.85156 6.13086 6.85156C6.14258 6.85156 6.18359 6.85156 6.18359 6.85156C6.18359 8.78516 5.45117 9.93945 4.21484 9.93945C3.48828 9.93945 2.92578 9.54102 2.73242 8.90234H1.22656C1.47852 10.291 2.65625 11.2051 4.20312 11.2051ZM4.25586 6.91602C3.2832 6.91602 2.5918 6.22461 2.5918 5.25781C2.5918 4.31445 3.31836 3.59375 4.26172 3.59375C5.20508 3.59375 5.93164 4.32617 5.93164 5.28125C5.93164 6.22461 5.22266 6.91602 4.25586 6.91602ZM10.3438 11.123C10.9004 11.123 11.2812 10.7246 11.2812 10.1973C11.2812 9.66406 10.9004 9.27148 10.3438 9.27148C9.79297 9.27148 9.40625 9.66406 9.40625 10.1973C9.40625 10.7246 9.79297 11.123 10.3438 11.123ZM10.3438 6.72852C10.9004 6.72852 11.2812 6.33594 11.2812 5.80859C11.2812 5.27539 10.9004 4.88281 10.3438 4.88281C9.79297 4.88281 9.40625 5.27539 9.40625 5.80859C9.40625 6.33594 9.79297 6.72852 10.3438 6.72852ZM17.0059 11H18.4531V9.42383H19.5957V8.14648H18.4531V2.54492H16.3203C14.8262 4.79492 13.6367 6.67578 12.875 8.07617V9.42383H17.0059V11ZM14.2754 8.09375C15.2598 6.35938 16.1387 4.9707 16.9473 3.77539H17.0293V8.18164H14.2754V8.09375ZM23.0586 11H24.5703V2.54492H23.0645L20.8555 4.0918V5.54492L22.959 4.06836H23.0586V11ZM35.7852 11H37.4082L34.4023 2.54492H32.7031L29.7031 11H31.2324L31.959 8.83789H35.0703L35.7852 11ZM33.4707 4.15625H33.5703L34.7188 7.64258H32.3105L33.4707 4.15625ZM47.5918 11V2.54492H45.8223L43.2793 8.70312H43.1738L40.6309 2.54492H38.8613V11H40.2676V5.05273H40.3496L42.6875 10.6719H43.7656L46.1035 5.05273H46.1855V11H47.5918Z" transform="translate(164 2.5)" fill="white"/>
<path fill-rule="evenodd" clip-rule="evenodd" d="M6.48756 0C9.05057 0 11.363 1.03955 13 2.70703L11.9119 3.76416C10.5539 2.36572 8.626 1.49219 6.48756 1.49219C4.36289 1.49219 2.44608 2.35449 1.08956 3.7373L0 2.68164C1.63555 1.02881 3.93751 0 6.48756 0ZM10.8235 4.82129C9.74478 3.69189 8.20144 2.98438 6.48756 2.98438C4.78827 2.98438 3.25663 3.67969 2.17927 4.79248L3.2693 5.84863C4.0672 5.00537 5.21365 4.47656 6.48756 4.47656C7.77688 4.47656 8.93563 5.01807 9.73462 5.87939L10.8235 4.82129ZM8.64442 6.93848C8.12637 6.34521 7.35236 5.96875 6.48756 5.96875C5.63901 5.96875 4.87786 6.33105 4.36016 6.90527L6.52254 9L8.64442 6.93848Z" transform="translate(45.5 5.5)" fill="white"/>
<path fill-rule="evenodd" clip-rule="evenodd" d="M12.5 0C12.2239 0 12 0.223633 12 0.5V9C12 9.27637 12.2239 9.5 12.5 9.5H14C14.2761 9.5 14.5 9.27637 14.5 9V0.5C14.5 0.223633 14.2761 0 14 0H12.5ZM8.5 2.5C8.22386 2.5 8 2.72363 8 3V9C8 9.27637 8.22386 9.5 8.5 9.5H10C10.2761 9.5 10.5 9.27637 10.5 9V3C10.5 2.72363 10.2761 2.5 10 2.5H8.5ZM4 5C4 4.72363 4.22386 4.5 4.5 4.5H6C6.27614 4.5 6.5 4.72363 6.5 5V9C6.5 9.27637 6.27614 9.5 6 9.5H4.5C4.22386 9.5 4 9.27637 4 9V5ZM0.5 6.5C0.223857 6.5 0 6.72363 0 7V9C0 9.27637 0.223857 9.5 0.5 9.5H2C2.27614 9.5 2.5 9.27637 2.5 9V7C2.5 6.72363 2.27614 6.5 2 6.5H0.5Z" transform="translate(7 5)" fill="white"/>
<path opacity="0.4" d="M0.5 2.5C0.5 1.39543 1.39543 0.5 2.5 0.5H19.5C20.6046 0.5 21.5 1.39543 21.5 2.5V8C21.5 9.10457 20.6046 10 19.5 10H18.4687H2.5C1.39543 10 0.5 9.10457 0.5 8V2.5Z" transform="translate(346 5)" stroke="white"/>
<path fill-rule="evenodd" clip-rule="evenodd" d="M0 3.87402C0.86261 3.65234 1.5 2.86865 1.5 1.93701C1.5 1.00537 0.86261 0.222168 0 0V3.87402Z" transform="translate(369 8.5)" fill="white" fill-opacity="0.4"/>
<path fill-rule="evenodd" clip-rule="evenodd" d="M0 1C0 0.447715 0.447715 0 1 0H17C17.5523 0 18 0.447715 18 1V5.5C18 6.05228 17.5523 6.5 17 6.5H1C0.447715 6.5 0 6.05228 0 5.5V1Z" transform="translate(348 7)" fill="white"/>
<path d="M5.8125 11H6.86719V2.54492H5.81836L3.56836 4.16211V5.27539L5.71875 3.7168H5.8125V11ZM12.2344 11.1992C14.1328 11.1992 15.2227 9.59375 15.2227 6.78711C15.2227 3.98633 14.1152 2.3457 12.2344 2.3457C10.3418 2.3457 9.23438 3.98047 9.23438 6.76953C9.23438 9.58203 10.3301 11.1992 12.2344 11.1992ZM12.2344 10.2793C10.9863 10.2793 10.2949 9.03125 10.2949 6.76953C10.2949 4.53711 10.998 3.27148 12.2344 3.27148C13.4707 3.27148 14.1621 4.52539 14.1621 6.76953C14.1621 9.03711 13.4824 10.2793 12.2344 10.2793ZM19.793 11.1992C21.6914 11.1992 22.7812 9.59375 22.7812 6.78711C22.7812 3.98633 21.6738 2.3457 19.793 2.3457C17.9004 2.3457 16.793 3.98047 16.793 6.76953C16.793 9.58203 17.8887 11.1992 19.793 11.1992ZM19.793 10.2793C18.5449 10.2793 17.8535 9.03125 17.8535 6.76953C17.8535 4.53711 18.5566 3.27148 19.793 3.27148C21.0293 3.27148 21.7207 4.52539 21.7207 6.76953C21.7207 9.03711 21.041 10.2793 19.793 10.2793ZM27.6387 4.43164C27.6387 3.23633 26.8945 2.39844 25.8398 2.39844C24.7852 2.39844 24.0352 3.24219 24.0352 4.43164C24.0352 5.62695 24.7852 6.4707 25.8398 6.4707C26.8945 6.4707 27.6387 5.62695 27.6387 4.43164ZM25.8398 5.7207C25.3184 5.7207 24.9727 5.21094 24.9727 4.43164C24.9727 3.65234 25.3125 3.14844 25.8398 3.14844C26.3672 3.14844 26.7012 3.64062 26.7012 4.43164C26.7012 5.20508 26.3555 5.7207 25.8398 5.7207ZM25.7461 11L28.6465 7.0332L31.9277 2.54492H30.8613L27.8965 6.59375L24.668 11H25.7461ZM32.5312 9.10742C32.5312 7.91211 31.7871 7.07422 30.7324 7.07422C29.6777 7.07422 28.9277 7.91797 28.9277 9.10742C28.9277 10.3027 29.6777 11.1465 30.7324 11.1465C31.7871 11.1465 32.5312 10.3027 32.5312 9.10742ZM30.7324 10.3965C30.2109 10.3965 29.8652 9.88672 29.8652 9.10742C29.8652 8.32812 30.2051 7.82422 30.7324 7.82422C31.2598 7.82422 31.5938 8.31641 31.5938 9.10742C31.5938 9.88086 31.248 10.3965 30.7324 10.3965Z" transform="translate(310 3.5)" fill="white"/>
</svg>
